<?xml version="1.0" encoding="UTF-8" standalone="no"?>
<!-- Created with Inkscape (http://www.inkscape.org/) -->

<svg
   width="256"
   height="256"
   version="1.1"
   viewBox="0 0 67.733333 67.733504"
   id="svg14"
   sodipodi:docname="favicon.svg"
   inkscape:version="1.1.2 (0a00cf5339, 2022-02-04, custom)"
   inkscape:export-filename="/home/avoo/Code/furry-dictionary/static/favicon.png"
   inkscape:export-xdpi="96"
   inkscape:export-ydpi="96"
   xmlns:inkscape="http://www.inkscape.org/namespaces/inkscape"
   xmlns:sodipodi="http://sodipodi.sourceforge.net/DTD/sodipodi-0.dtd"
   xmlns="http://www.w3.org/2000/svg"
   xmlns:svg="http://www.w3.org/2000/svg">
  <defs
     id="defs18" />
  <sodipodi:namedview
     id="namedview16"
     pagecolor="#ffffff"
     bordercolor="#666666"
     borderopacity="1.0"
     inkscape:pageshadow="2"
     inkscape:pageopacity="0.0"
     inkscape:pagecheckerboard="0"
     showgrid="false"
     inkscape:zoom="1.873833"
     inkscape:cx="126.74556"
     inkscape:cy="139.82036"
     inkscape:window-width="1920"
     inkscape:window-height="1020"
     inkscape:window-x="1920"
     inkscape:window-y="28"
     inkscape:window-maximized="1"
     inkscape:current-layer="svg14" />
  <g
     fill="#ffd4f1"
     id="g12"
     transform="matrix(1.139204,0,0,1.139204,-370.01144,5.427106)"
     style="stroke-width:0.877806;fill:#3b82f6;fill-opacity:1">
    <path
       transform="scale(0.26458)"
       d="m 1351.3,90.281 c 5.2034,0.5141 9.9465,2.0556 13.023,4.5918 8.4943,7.0018 13.036,12.599 19.523,18.918 6.7818,6.6058 19.298,9.6264 20.281,19.857 0.4489,6.9204 -4.7502,13.44 -11.639,17.74 -9.6626,6.0317 -23.323,3.2194 -34.525,6.8594 -8.7926,2.8571 -14.904,8.0148 -24.932,11.523 -8.2342,2.8812 -19.331,4.2025 -25.342,0.54688 -7.0709,-4.3 -6.8261,-14.006 -4.4219,-21.463 2.2993,-7.1311 5.6398,-12.181 7.8262,-18.326 2.6681,-7.499 1.4548,-9.8952 6.4355,-22.564 3.5126,-8.9354 9.657,-13.448 17.984,-16.111 4.9177,-1.5731 10.582,-2.0864 15.785,-1.5723 z"
       id="path2"
       style="stroke-width:0.877806;fill:#3b82f6;fill-opacity:1" />
    <path
       transform="scale(0.26458)"
       d="m 1274.5,89.545 c 9.5601,0.01978 22.537,8.9924 25.285,18.529 2.239,7.7699 -4.9047,19.711 -11.961,19.666 -12.09,-0.0777 -28.998,-22.927 -21.939,-33.967 1.7398,-2.7213 4.4924,-4.0082 7.7012,-4.2031 0.3008,-0.01828 0.6056,-0.02603 0.914,-0.02539 z"
       id="path4"
       style="stroke-width:0.877806;fill:#3b82f6;fill-opacity:1" />
    <path
       transform="scale(0.26458)"
       d="m 1397.4,54.203 c 0.8605,-0.0035 1.729,0.09556 2.5977,0.30664 14.786,3.5929 14.672,34.896 2.4082,43.547 -7.12,5.0223 -22.068,-0.67842 -24.98,-8.6484 -4.4213,-12.097 7.0684,-35.153 19.975,-35.205 z"
       id="path6"
       style="stroke-width:0.877806;fill:#3b82f6;fill-opacity:1" />
    <path
       transform="scale(0.26458)"
       d="m 1292.6,31.146 c 14.366,-0.26718 32.34,21.753 30.906,36.658 -1.0319,10.727 -17.238,21.409 -26.928,17.094 -15.925,-7.092 -25.064,-43.63 -9.8476,-52.188 1.8378,-1.0336 3.8169,-1.5263 5.8691,-1.5645 z"
       id="path8"
       style="stroke-width:0.877806;fill:#3b82f6;fill-opacity:1" />
    <path
       transform="scale(0.26458)"
       d="m 1345.7,14.854 c 19.082,-0.0157 29.534,39.634 17.56,54.414 -5.8428,7.2119 -22.535,5.1304 -28.312,-2.1309 -11.158,-14.024 -8.4031,-51.035 9.836,-52.252 0.3071,-0.0205 0.6131,-0.031 0.916,-0.03125 z"
       id="path10"
       style="stroke-width:0.877806;fill:#3b82f6;fill-opacity:1" />
  </g>
</svg>
